<svg xmlns="http://www.w3.org/2000/svg" viewBox="0 0 1200 700" width="1200" height="700">
  <defs>
    <linearGradient id="bgGrad" x1="0%" y1="0%" x2="100%" y2="100%">
      <stop offset="0%" style="stop-color:#0f172a"/>
      <stop offset="100%" style="stop-color:#1e293b"/>
    </linearGradient>
    <linearGradient id="titleGrad" x1="0%" y1="0%" x2="100%" y2="0%">
      <stop offset="0%" style="stop-color:#38bdf8"/>
      <stop offset="50%" style="stop-color:#818cf8"/>
      <stop offset="100%" style="stop-color:#e879f9"/>
    </linearGradient>
    <filter id="shadow" x="-20%" y="-20%" width="140%" height="140%">
      <feDropShadow dx="0" dy="4" stdDeviation="8" flood-opacity="0.3"/>
    </filter>
  </defs>
  
  <!-- Background -->
  <rect width="1200" height="700" fill="url(#bgGrad)"/>
  
  <!-- Title -->
  <text x="600" y="50" text-anchor="middle" font-family="system-ui, -apple-system, sans-serif" font-size="36" font-weight="600" fill="url(#titleGrad)">color2tailwind</text>
  <text x="600" y="80" text-anchor="middle" font-family="system-ui, sans-serif" font-size="16" fill="#94a3b8">Convert any CSS color to Tailwind CSS classes — just hover!</text>
  
  <!-- Format tags -->
  <g transform="translate(300, 100)">
    <rect x="0" y="0" width="50" height="24" rx="12" fill="#1e293b" stroke="#334155" stroke-width="1"/>
    <text x="25" y="16" text-anchor="middle" font-family="monospace" font-size="11" fill="#38bdf8">hex</text>
    
    <rect x="60" y="0" width="50" height="24" rx="12" fill="#1e293b" stroke="#334155" stroke-width="1"/>
    <text x="85" y="16" text-anchor="middle" font-family="monospace" font-size="11" fill="#38bdf8">rgb</text>
    
    <rect x="120" y="0" width="50" height="24" rx="12" fill="#1e293b" stroke="#334155" stroke-width="1"/>
    <text x="145" y="16" text-anchor="middle" font-family="monospace" font-size="11" fill="#38bdf8">hsl</text>
    
    <rect x="180" y="0" width="60" height="24" rx="12" fill="#1e293b" stroke="#334155" stroke-width="1"/>
    <text x="210" y="16" text-anchor="middle" font-family="monospace" font-size="11" fill="#38bdf8">oklch</text>
    
    <rect x="250" y="0" width="60" height="24" rx="12" fill="#1e293b" stroke="#334155" stroke-width="1"/>
    <text x="280" y="16" text-anchor="middle" font-family="monospace" font-size="11" fill="#38bdf8">oklab</text>
    
    <rect x="320" y="0" width="50" height="24" rx="12" fill="#1e293b" stroke="#334155" stroke-width="1"/>
    <text x="345" y="16" text-anchor="middle" font-family="monospace" font-size="11" fill="#38bdf8">lab</text>
    
    <rect x="380" y="0" width="50" height="24" rx="12" fill="#1e293b" stroke="#334155" stroke-width="1"/>
    <text x="405" y="16" text-anchor="middle" font-family="monospace" font-size="11" fill="#38bdf8">lch</text>
    
    <rect x="440" y="0" width="50" height="24" rx="12" fill="#1e293b" stroke="#334155" stroke-width="1"/>
    <text x="465" y="16" text-anchor="middle" font-family="monospace" font-size="11" fill="#38bdf8">hwb</text>
    
    <rect x="500" y="0" width="70" height="24" rx="12" fill="#1e293b" stroke="#334155" stroke-width="1"/>
    <text x="535" y="16" text-anchor="middle" font-family="monospace" font-size="11" fill="#38bdf8">named</text>
  </g>
  
  <!-- Left Editor Panel - Exact Match -->
  <g transform="translate(40, 150)" filter="url(#shadow)">
    <!-- Editor window -->
    <rect width="520" height="380" rx="8" fill="#1e1e1e"/>
    
    <!-- Title bar -->
    <rect width="520" height="36" rx="8" fill="#323233"/>
    <rect y="28" width="520" height="8" fill="#323233"/>
    <circle cx="20" cy="18" r="6" fill="#ff5f56"/>
    <circle cx="40" cy="18" r="6" fill="#ffbd2e"/>
    <circle cx="60" cy="18" r="6" fill="#27ca40"/>
    <text x="90" y="22" font-family="system-ui, sans-serif" font-size="13" fill="#888">styles.css</text>
    
    <!-- Code content -->
    <g transform="translate(0, 50)" font-family="'Fira Code', Consolas, monospace" font-size="14">
      <!-- Line 1 -->
      <text x="20" y="20" fill="#858585">1</text>
      <text x="50" y="20" fill="#d7ba7d">.button</text>
      <text x="110" y="20" fill="#d4d4d4">{</text>
      
      <!-- Line 2 - Highlighted -->
      <rect x="0" y="28" width="520" height="24" fill="rgba(255,255,255,0.05)"/>
      <text x="20" y="46" fill="#858585">2</text>
      <text x="50" y="46" fill="#9cdcfe">background</text>
      <text x="140" y="46" fill="#d4d4d4">:</text>
      <rect x="150" y="32" width="70" height="18" rx="3" fill="rgba(239,68,68,0.2)"/>
      <text x="155" y="46" fill="#ce9178">#ef4444</text>
      <text x="220" y="46" fill="#d4d4d4">;</text>
      
      <!-- Line 3 -->
      <text x="20" y="72" fill="#858585">3</text>
      <text x="50" y="72" fill="#9cdcfe">color</text>
      <text x="90" y="72" fill="#d4d4d4">:</text>
      <text x="100" y="72" fill="#4ec9b0">white</text>
      <text x="140" y="72" fill="#d4d4d4">;</text>
      
      <!-- Line 4 -->
      <text x="20" y="98" fill="#858585">4</text>
      <text x="50" y="98" fill="#9cdcfe">border</text>
      <text x="100" y="98" fill="#d4d4d4">:</text>
      <text x="110" y="98" fill="#b5cea8">2px</text>
      <text x="140" y="98" fill="#d4d4d4">solid</text>
      <text x="180" y="98" fill="#ce9178">#dc2626</text>
      <text x="250" y="98" fill="#d4d4d4">;</text>
      
      <!-- Line 5 -->
      <text x="20" y="124" fill="#858585">5</text>
      <text x="50" y="124" fill="#d4d4d4">}</text>
    </g>
    
    <!-- Tooltip - Exact Match -->
    <g transform="translate(240, 70)">
      <rect width="260" height="260" rx="6" fill="#252526" stroke="#454545" stroke-width="1"/>
      
      <!-- Header -->
      <rect x="12" y="12" width="48" height="28" rx="4" fill="#ef4444" stroke="#666" stroke-width="1"/>
      <text x="72" y="28" font-family="'Fira Code', monospace" font-size="15" font-weight="600" fill="#fff">#EF4444</text>
      <text x="72" y="42" font-family="system-ui, sans-serif" font-size="11" fill="#888" font-style="italic">Detected: HEX</text>
      
      <!-- Divider -->
      <line x1="12" y1="55" x2="248" y2="55" stroke="#454545" stroke-width="1"/>
      
      <!-- Section title -->
      <text x="12" y="75" font-family="system-ui, sans-serif" font-size="13" font-weight="600" fill="#4ec9b0">✅ Tailwind CSS Match</text>
      <text x="12" y="95" font-family="system-ui, sans-serif" font-size="12" fill="#9cdcfe">Red palette, shade 500</text>
      
      <!-- Class table -->
      <text x="12" y="120" font-family="system-ui, sans-serif" font-size="11" fill="#888">Property</text>
      <text x="100" y="120" font-family="system-ui, sans-serif" font-size="11" fill="#888">Class</text>
      
      <text x="12" y="140" font-family="system-ui, sans-serif" font-size="12" fill="#d4d4d4">Text</text>
      <text x="100" y="140" font-family="'Fira Code', monospace" font-size="11" fill="#ce9178">text-red-500</text>
      
      <text x="12" y="158" font-family="system-ui, sans-serif" font-size="12" fill="#d4d4d4">Background</text>
      <text x="100" y="158" font-family="'Fira Code', monospace" font-size="11" fill="#ce9178">bg-red-500</text>
      
      <text x="12" y="176" font-family="system-ui, sans-serif" font-size="12" fill="#d4d4d4">Border</text>
      <text x="100" y="176" font-family="'Fira Code', monospace" font-size="11" fill="#ce9178">border-red-500</text>
      
      <text x="12" y="194" font-family="system-ui, sans-serif" font-size="12" fill="#d4d4d4">Ring</text>
      <text x="100" y="194" font-family="'Fira Code', monospace" font-size="11" fill="#ce9178">ring-red-500</text>
      
      <!-- Divider -->
      <line x1="12" y1="210" x2="248" y2="210" stroke="#454545" stroke-width="1"/>
      
      <!-- Color values -->
      <text x="12" y="230" font-family="system-ui, sans-serif" font-size="11" fill="#888">RGB: <tspan fill="#9cdcfe" font-family="monospace">rgb(239, 68, 68)</tspan></text>
      <text x="12" y="248" font-family="system-ui, sans-serif" font-size="11" fill="#888">HSL: <tspan fill="#9cdcfe" font-family="monospace">hsl(0, 84%, 60%)</tspan></text>
    </g>
  </g>
  
  <!-- Right Editor Panel - Nearest Match -->
  <g transform="translate(600, 150)" filter="url(#shadow)">
    <!-- Editor window -->
    <rect width="560" height="380" rx="8" fill="#1e1e1e"/>
    
    <!-- Title bar -->
    <rect width="560" height="36" rx="8" fill="#323233"/>
    <rect y="28" width="560" height="8" fill="#323233"/>
    <circle cx="20" cy="18" r="6" fill="#ff5f56"/>
    <circle cx="40" cy="18" r="6" fill="#ffbd2e"/>
    <circle cx="60" cy="18" r="6" fill="#27ca40"/>
    <text x="90" y="22" font-family="system-ui, sans-serif" font-size="13" fill="#888">theme.css</text>
    
    <!-- Code content -->
    <g transform="translate(0, 50)" font-family="'Fira Code', Consolas, monospace" font-size="14">
      <!-- Line 1 -->
      <text x="20" y="20" fill="#858585">1</text>
      <text x="50" y="20" fill="#d7ba7d">:root</text>
      <text x="95" y="20" fill="#d4d4d4">{</text>
      
      <!-- Line 2 - Highlighted -->
      <rect x="0" y="28" width="560" height="24" fill="rgba(255,255,255,0.05)"/>
      <text x="20" y="46" fill="#858585">2</text>
      <text x="50" y="46" fill="#9cdcfe">--primary</text>
      <text x="130" y="46" fill="#d4d4d4">:</text>
      <rect x="140" y="32" width="150" height="18" rx="3" fill="rgba(71,133,230,0.2)"/>
      <text x="145" y="46" fill="#dcdcaa">oklch(0.65 0.2 250)</text>
      <text x="290" y="46" fill="#d4d4d4">;</text>
      
      <!-- Line 3 -->
      <text x="20" y="72" fill="#858585">3</text>
      <text x="50" y="72" fill="#9cdcfe">--accent</text>
      <text x="120" y="72" fill="#d4d4d4">:</text>
      <text x="130" y="72" fill="#dcdcaa">hsl(280, 70%, 55%)</text>
      <text x="280" y="72" fill="#d4d4d4">;</text>
      
      <!-- Line 4 -->
      <text x="20" y="98" fill="#858585">4</text>
      <text x="50" y="98" fill="#9cdcfe">--surface</text>
      <text x="130" y="98" fill="#d4d4d4">:</text>
      <text x="140" y="98" fill="#dcdcaa">lab(95% -2 5)</text>
      <text x="250" y="98" fill="#d4d4d4">;</text>
      
      <!-- Line 5 -->
      <text x="20" y="124" fill="#858585">5</text>
      <text x="50" y="124" fill="#d4d4d4">}</text>
    </g>
    
    <!-- Tooltip - Nearest Match -->
    <g transform="translate(260, 70)">
      <rect width="280" height="290" rx="6" fill="#252526" stroke="#454545" stroke-width="1"/>
      
      <!-- Header -->
      <rect x="12" y="12" width="48" height="28" rx="4" fill="#4785e6" stroke="#666" stroke-width="1"/>
      <text x="72" y="28" font-family="'Fira Code', monospace" font-size="15" font-weight="600" fill="#fff">#4785E6</text>
      <text x="72" y="42" font-family="system-ui, sans-serif" font-size="11" fill="#888" font-style="italic">Detected: OKLCH</text>
      
      <!-- Divider -->
      <line x1="12" y1="55" x2="268" y2="55" stroke="#454545" stroke-width="1"/>
      
      <!-- Custom color section -->
      <text x="12" y="75" font-family="system-ui, sans-serif" font-size="13" font-weight="600" fill="#dcdcaa">🎨 Custom Color</text>
      
      <!-- Arbitrary values box -->
      <rect x="12" y="85" width="256" height="60" rx="4" fill="#2d2d30"/>
      <text x="20" y="102" font-family="system-ui, sans-serif" font-size="11" fill="#888">Arbitrary values:</text>
      <text x="20" y="120" font-family="'Fira Code', monospace" font-size="10" fill="#ce9178">bg-[#4785e6]</text>
      <text x="120" y="120" font-family="'Fira Code', monospace" font-size="10" fill="#ce9178">text-[#4785e6]</text>
      <text x="20" y="136" font-family="'Fira Code', monospace" font-size="10" fill="#ce9178">border-[#4785e6]</text>
      
      <!-- Nearest colors section -->
      <text x="12" y="165" font-family="system-ui, sans-serif" font-size="13" font-weight="600" fill="#4ec9b0">🔍 Nearest Tailwind Colors</text>
      
      <!-- Nearest 1 -->
      <rect x="12" y="175" width="16" height="16" rx="3" fill="#3b82f6" stroke="#555" stroke-width="1"/>
      <text x="35" y="187" font-family="system-ui, sans-serif" font-size="12" font-weight="500" fill="#d4d4d4">blue-500</text>
      <text x="100" y="187" font-family="system-ui, sans-serif" font-size="11" fill="#6a9955">— 92% similar</text>
      <text x="190" y="187" font-family="system-ui, sans-serif" font-size="10" fill="#666">(ΔE: 8.2)</text>
      
      <!-- Nearest 2 -->
      <rect x="12" y="198" width="16" height="16" rx="3" fill="#60a5fa" stroke="#555" stroke-width="1"/>
      <text x="35" y="210" font-family="system-ui, sans-serif" font-size="12" font-weight="500" fill="#d4d4d4">blue-400</text>
      <text x="100" y="210" font-family="system-ui, sans-serif" font-size="11" fill="#6a9955">— 87% similar</text>
      <text x="190" y="210" font-family="system-ui, sans-serif" font-size="10" fill="#666">(ΔE: 13.1)</text>
      
      <!-- Nearest 3 -->
      <rect x="12" y="221" width="16" height="16" rx="3" fill="#2563eb" stroke="#555" stroke-width="1"/>
      <text x="35" y="233" font-family="system-ui, sans-serif" font-size="12" font-weight="500" fill="#d4d4d4">blue-600</text>
      <text x="100" y="233" font-family="system-ui, sans-serif" font-size="11" fill="#6a9955">— 84% similar</text>
      <text x="190" y="233" font-family="system-ui, sans-serif" font-size="10" fill="#666">(ΔE: 16.4)</text>
      
      <!-- Divider -->
      <line x1="12" y1="250" x2="268" y2="250" stroke="#454545" stroke-width="1"/>
      
      <!-- Color values -->
      <text x="12" y="270" font-family="system-ui, sans-serif" font-size="11" fill="#888">RGB: <tspan fill="#9cdcfe" font-family="monospace">rgb(71, 133, 230)</tspan></text>
    </g>
  </g>
  
  <!-- Bottom labels -->
  <text x="300" y="560" text-anchor="middle" font-family="system-ui, sans-serif" font-size="14" font-weight="600" fill="#4ec9b0">✅ Exact Match</text>
  <text x="300" y="580" text-anchor="middle" font-family="system-ui, sans-serif" font-size="12" fill="#888">Tailwind palette color detected</text>
  
  <text x="880" y="560" text-anchor="middle" font-family="system-ui, sans-serif" font-size="14" font-weight="600" fill="#dcdcaa">🎨 Smart Matching</text>
  <text x="880" y="580" text-anchor="middle" font-family="system-ui, sans-serif" font-size="12" fill="#888">Nearest alternatives + arbitrary values</text>
  
  <!-- VS Code badge -->
  <g transform="translate(540, 630)">
    <rect width="120" height="32" rx="16" fill="#007acc"/>
    <text x="60" y="21" text-anchor="middle" font-family="system-ui, sans-serif" font-size="12" font-weight="500" fill="#fff">VS Code Extension</text>
  </g>
</svg>
